<?xml version="1.0" encoding="UTF-8"?>
<svg version="1.1" xmlns="http://www.w3.org/2000/svg" width="274" height="280">
<path d="M0 0 C0.81436523 0.23106445 1.62873047 0.46212891 2.46777344 0.70019531 C47.33291803 13.84718755 82.8217588 46.09544782 97.9375 90.6875 C98.20780029 91.48099854 98.47810059 92.27449707 98.7565918 93.09204102 C103.08780824 106.68934421 104.56020261 120.05616608 104.4375 134.25 C104.43412628 135.01280273 104.43075256 135.77560547 104.42727661 136.56152344 C104.34959192 148.72672378 103.6005878 160.30194193 100 172 C99.75862305 172.78681152 99.51724609 173.57362305 99.26855469 174.38427734 C88.49665835 208.23784086 66.36996233 230.81442008 41.7064209 255.36224365 C39.25030761 257.80796102 36.79717162 260.25666115 34.34375 262.70507812 C19.91548278 277.10136592 19.91548278 277.10136592 16 275 C14.47186279 273.7056427 14.47186279 273.7056427 13.01074219 272.22192383 C12.45626404 271.66406693 11.90178589 271.10621002 11.33050537 270.53144836 C10.44760834 269.62836189 10.44760834 269.62836189 9.546875 268.70703125 C8.92782288 268.08277756 8.30877075 267.45852386 7.67095947 266.81535339 C5.69248853 264.8191003 3.72081257 262.816312 1.75 260.8125 C-0.83514099 258.19062919 -3.42344917 255.57194729 -6.015625 252.95703125 C-6.63655029 252.33056198 -7.25747559 251.70409271 -7.8972168 251.05863953 C-11.58249679 247.36136092 -15.3403175 243.81736517 -19.32714844 240.44360352 C-22.19838027 237.96584609 -24.84187635 235.26469968 -27.5 232.5625 C-28.03625 232.02173828 -28.5725 231.48097656 -29.125 230.92382812 C-30.41904036 229.61823383 -31.70988174 228.30947004 -33 227 C-37.31724539 230.48700589 -41.12317658 234.08871296 -44.640625 238.38671875 C-48.52784504 243 -48.52784504 243 -51 243 C-51.26982697 243.59350754 -51.53965393 244.18701508 -51.81765747 244.79850769 C-52.99501694 246.99072166 -54.18342489 248.45409606 -55.91748047 250.22387695 C-56.5050412 250.82742508 -57.09260193 251.43097321 -57.69796753 252.05281067 C-58.64798141 253.01086861 -58.64798141 253.01086861 -59.6171875 253.98828125 C-60.27075226 254.65087448 -60.92431702 255.31346771 -61.59768677 255.99613953 C-62.97856348 257.39150009 -64.36224874 258.78408609 -65.74853516 260.17407227 C-67.872609 262.31009554 -69.97731909 264.46405887 -72.08203125 266.61914062 C-73.42593144 267.97249898 -74.7709462 269.32475167 -76.1171875 270.67578125 C-76.74648163 271.3246077 -77.37577576 271.97343414 -78.0241394 272.641922 C-78.61800446 273.22970932 -79.21186951 273.81749664 -79.82373047 274.4230957 C-80.34176239 274.94619827 -80.85979431 275.46930084 -81.39352417 276.008255 C-84.98320146 278.22431355 -87.71475308 275.66056434 -90.29980469 273.07250977 C-90.92014587 272.45839737 -91.54048706 271.84428497 -92.17962646 271.21156311 C-92.83706848 270.54491135 -93.4945105 269.87825958 -94.171875 269.19140625 C-95.1955014 268.1685276 -95.1955014 268.1685276 -96.23980713 267.12498474 C-97.67894002 265.68351299 -99.11438471 264.23835094 -100.54638672 262.78979492 C-102.74677291 260.56576178 -104.96022974 258.35539955 -107.17578125 256.14648438 C-108.57110763 254.74558318 -109.96566582 253.34391635 -111.359375 251.94140625 C-112.02491394 251.27677872 -112.69045288 250.61215118 -113.37615967 249.92738342 C-113.98389221 249.31011887 -114.59162476 248.69285431 -115.21777344 248.05688477 C-115.75642029 247.51363052 -116.29506714 246.97037628 -116.85003662 246.41065979 C-118 245 -118 245 -118 243 C-118.99 242.67 -119.98 242.34 -121 242 C-121 241.34 -121 240.68 -121 240 C-121.99 239.67 -122.98 239.34 -124 239 C-124 238.34 -124 237.68 -124 237 C-124.99 236.67 -125.98 236.34 -127 236 C-127 235.34 -127 234.68 -127 234 C-127.99 233.67 -128.98 233.34 -130 233 C-130 232.34 -130 231.68 -130 231 C-130.99 230.67 -131.98 230.34 -133 230 C-165.37689956 195.42699291 -179.16890229 143.80440707 -166 98 C-165.81808105 97.33983887 -165.63616211 96.67967773 -165.44873047 95.99951172 C-159.94786195 76.45889298 -150.04069772 59.44554121 -137 44 C-136.30132812 43.16597656 -135.60265625 42.33195312 -134.8828125 41.47265625 C-116.89139443 20.69608983 -92.17636673 7.3039414 -66 0 C-64.97398682 -0.29028076 -64.97398682 -0.29028076 -63.92724609 -0.58642578 C-44.7453119 -5.70584589 -19.06173197 -5.42188427 0 0 Z M-101 69 C-101.82113281 69.80050781 -102.64226562 70.60101563 -103.48828125 71.42578125 C-133.83006228 102.60602255 -133.5868875 152.89685772 -111.26220703 188.14404297 C-107.7626052 193.28987916 -103.46404046 197.68549255 -99 202 C-98.09749512 202.87809326 -98.09749512 202.87809326 -97.17675781 203.77392578 C-95.27530151 205.61200021 -93.36114001 207.43516595 -91.4375 209.25 C-90.82946533 209.82387451 -90.22143066 210.39774902 -89.5949707 210.98901367 C-86.75828963 213.98960589 -86.75828963 213.98960589 -83 215 C-81.60177029 213.61707981 -81.60177029 213.61707981 -80.125 211.75 C-75.10297282 205.82166218 -69.52998282 200.44825893 -64 195 C-67.24927031 191.02866962 -70.62667259 187.34991316 -74.31005859 183.77294922 C-81.76010226 176.52281312 -89.00389185 169.19438492 -92 159 C-92.35320312 157.84886719 -92.70640625 156.69773437 -93.0703125 155.51171875 C-101.59483549 124.60242983 -90.98910088 93.74558915 -62.24609375 77.4375 C-34.80261279 64.01536084 -2.31947061 70.90829621 17.0625 94.51171875 C34.34868441 118.24296761 36.07053092 151.87513868 16.453125 175.12890625 C13.74039888 178.19078553 10.89039108 181.10666953 8 184 C7.02324223 184.99069293 6.04667794 185.98157666 5.0703125 186.97265625 C2.72854085 189.33101268 0.37309669 191.67323275 -2 194 C2.23816537 199.06623768 6.67408963 203.80038069 11.375 208.4375 C12.33599609 209.39172852 12.33599609 209.39172852 13.31640625 210.36523438 C14.87530879 211.91250332 16.43651416 213.45736492 18 215 C28.80866631 208.29145244 28.80866631 208.29145244 35 199 C35.66 199 36.32 199 37 199 C65.62543635 167.92703563 69.89726314 118.139878 46.75561523 82.77197266 C12.4134295 32.74554532 -58.2432738 25.29213355 -101 69 Z M-53 130 C-53.73019522 137.59683868 -52.24799869 142.62800196 -48 149 C-47.34 149 -46.68 149 -46 149 C-45.77570313 149.55171875 -45.55140625 150.1034375 -45.3203125 150.671875 C-43.59614817 153.71211744 -41.37484178 155.81425673 -38.875 158.25 C-37.96492187 159.14203125 -37.05484375 160.0340625 -36.1171875 160.953125 C-33.24343631 163.73143796 -33.29788847 162.89521513 -30 161 C-27.71895754 159.07161871 -25.61360009 156.98380735 -23.5 154.875 C-22.93152344 154.33101562 -22.36304688 153.78703125 -21.77734375 153.2265625 C-13.19693731 144.70588047 -9.29403274 133.8030558 -15.8046875 122.6484375 C-26.04796882 108.52208222 -49.42791278 112.45850028 -53 130 Z " fill="#008BDA" transform="translate(170,3)"/>
</svg>
