<svg xmlns="http://www.w3.org/2000/svg" width="100" height="100" viewBox="0 0 100 100" version="1.1"><path d="M 34 36.500 L 34 41 39.500 41 L 45 41 45 54.439 L 45 67.877 49.429 68.542 C 51.865 68.907, 54.340 68.908, 54.929 68.544 L 56 67.882 56 54.441 L 56 41 61.500 41 L 67 41 67 36.500 L 67 32 50.500 32 L 34 32 34 36.500" stroke="none" fill="#040404" fill-rule="evenodd"/><path d="M 11.227 22.250 L 11.500 40.500 16.500 40.500 L 21.500 40.500 21.805 35.750 L 22.110 31 24.507 31 L 26.904 31 30.202 35.750 L 33.500 40.500 33.807 36.250 L 34.115 32 36.625 32 L 39.135 32 38.500 30 C 38.132 28.841, 38.320 28, 38.947 28 C 46.685 28, 44.614 8.826, 36.510 5.440 L 33.064 4 22.010 4 L 10.955 4 11.227 22.250 M 22 17.500 L 22 22 26.300 22 C 31.044 22, 33 20.686, 33 17.500 C 33 14.314, 31.044 13, 26.300 13 L 22 13 22 17.500 M 39.772 74.250 C 42.805 83.737, 45.745 92.084, 46.305 92.797 L 47.322 94.093 52.411 93.797 L 57.500 93.500 60.868 83.103 L 64.235 72.707 67.228 82.103 C 68.874 87.272, 70.693 92.084, 71.271 92.797 L 72.322 94.093 77.367 93.797 L 82.413 93.500 88.189 75.500 C 91.366 65.600, 93.973 57.388, 93.983 57.250 C 93.992 57.112, 91.600 57, 88.668 57 L 83.335 57 80.047 67.500 C 78.238 73.275, 76.642 78, 76.500 78 C 76.358 78, 74.762 73.275, 72.953 67.500 L 69.665 57 64.548 57 L 59.432 57 55.871 67.750 L 52.311 78.500 50.876 73.500 L 49.441 68.500 47.221 68.180 L 45 67.861 45 62.430 L 45 57 39.629 57 L 34.257 57 39.772 74.250" stroke="none" fill="#4c04b4" fill-rule="evenodd"/></svg>